<svg width="130" height="130" viewBox="0 0 130 130" fill="none" xmlns="http://www.w3.org/2000/svg">
<rect width="65" height="130" fill="#0C161F"/>
<rect x="65" width="65" height="130" fill="#FFFFED"/>
<path d="M23.3704 72.56V76.16C23.3704 77.32 23.3704 78.38 23.3704 79.34C23.4104 80.3 23.4304 80.92 23.4304 81.2C24.0304 81.24 24.7504 81.28 25.5904 81.32C26.4304 81.36 27.4704 81.38 28.7104 81.38C33.2304 81.38 36.8104 79.84 39.4504 76.76C42.0904 73.68 43.4104 69.02 43.4104 62.78C43.4104 60.3 43.0704 58.08 42.3904 56.12C41.7504 54.16 40.8304 52.5 39.6304 51.14C38.4304 49.74 36.9904 48.68 35.3104 47.96C33.6304 47.2 31.7504 46.82 29.6704 46.82C28.2304 46.82 27.0504 46.86 26.1304 46.94C25.2504 46.98 24.3504 47.04 23.4304 47.12C23.4304 47.4 23.4104 48.02 23.3704 48.98C23.3704 49.94 23.3704 51.02 23.3704 52.22V55.82V58.82V69.5V72.56ZM14.4904 60.02C14.4904 56.7 14.4504 53.76 14.3704 51.2C14.2904 48.6 14.1704 46 14.0104 43.4C14.6904 43.48 15.4304 43.56 16.2304 43.64C17.0304 43.68 17.9304 43.7 18.9304 43.7C20.2504 43.7 21.7304 43.66 23.3704 43.58C25.0104 43.46 27.1504 43.4 29.7904 43.4C33.2304 43.4 36.3504 43.72 39.1504 44.36C41.9904 44.96 44.4304 46 46.4704 47.48C48.5104 48.96 50.0904 50.96 51.2104 53.48C52.3304 55.96 52.8904 59.1 52.8904 62.9C52.8904 66.22 52.3304 69.22 51.2104 71.9C50.1304 74.58 48.6304 76.88 46.7104 78.8C44.8304 80.68 42.6304 82.12 40.1104 83.12C37.6304 84.12 34.9704 84.62 32.1304 84.62C29.1304 84.62 26.5704 84.6 24.4504 84.56C22.3304 84.52 20.4904 84.5 18.9304 84.5C17.9304 84.5 17.0304 84.5 16.2304 84.5C15.4304 84.5 14.6904 84.54 14.0104 84.62C14.1704 82.14 14.2904 79.62 14.3704 77.06C14.4504 74.46 14.4904 71.5 14.4904 68.18V60.02Z" fill="#FFFFED"/>
<path d="M105.54 51.5C104.26 48.06 101.84 46.34 98.28 46.34C96.44 46.34 94.94 46.88 93.78 47.96C92.62 49.04 92.04 50.3 92.04 51.74C92.04 53.22 92.48 54.44 93.36 55.4C94.28 56.32 95.42 57.16 96.78 57.92C98.14 58.68 99.6 59.42 101.16 60.14C102.72 60.82 104.18 61.68 105.54 62.72C106.9 63.72 108.02 64.96 108.9 66.44C109.82 67.88 110.28 69.74 110.28 72.02C110.28 74.02 109.9 75.86 109.14 77.54C108.38 79.18 107.3 80.6 105.9 81.8C104.5 82.96 102.82 83.86 100.86 84.5C98.94 85.1 96.78 85.4 94.38 85.4C92.22 85.4 90.28 85.16 88.56 84.68C86.88 84.24 85.6 83.68 84.72 83C85.12 81.6 85.46 80.32 85.74 79.16C86.02 78 86.26 76.74 86.46 75.38H87.6C87.76 76.26 88.06 77.1 88.5 77.9C88.94 78.66 89.5 79.34 90.18 79.94C90.86 80.54 91.68 81.02 92.64 81.38C93.6 81.7 94.68 81.86 95.88 81.86C98.28 81.86 100.04 81.26 101.16 80.06C102.32 78.86 102.9 77.42 102.9 75.74C102.9 74.22 102.46 72.98 101.58 72.02C100.7 71.06 99.6 70.22 98.28 69.5C96.96 68.74 95.52 68.02 93.96 67.34C92.4 66.62 90.96 65.76 89.64 64.76C88.32 63.76 87.22 62.54 86.34 61.1C85.46 59.62 85.02 57.74 85.02 55.46C85.02 53.38 85.38 51.54 86.1 49.94C86.86 48.34 87.86 47 89.1 45.92C90.34 44.84 91.76 44.02 93.36 43.46C95 42.9 96.72 42.62 98.52 42.62C100.68 42.62 102.56 42.88 104.16 43.4C105.8 43.92 107.2 44.64 108.36 45.56C108 46.48 107.68 47.38 107.4 48.26C107.16 49.1 106.84 50.18 106.44 51.5H105.54Z" fill="#0C161F"/>
</svg>
