<svg width="512" height="138" viewBox="0 0 512 138" fill="none" xmlns="http://www.w3.org/2000/svg">
<path d="M75.0831 30.94C75.0831 28.3 75.0231 25.72 74.9031 23.2C74.8231 20.64 74.7231 18.04 74.6031 15.4C76.1231 15.48 77.6231 15.56 79.1031 15.64C80.6231 15.68 82.1431 15.7 83.6631 15.7C85.1831 15.7 86.6831 15.66 88.1631 15.58C89.6831 15.46 91.2031 15.4 92.7231 15.4C96.2431 15.4 99.2431 15.86 101.723 16.78C104.243 17.7 106.303 19.02 107.903 20.74C109.503 22.42 110.663 24.5 111.383 26.98C112.143 29.42 112.523 32.18 112.523 35.26C112.523 39.26 111.823 42.64 110.423 45.4C109.063 48.12 107.303 50.32 105.143 52C103.023 53.68 100.663 54.88 98.0631 55.6C95.5031 56.28 93.0431 56.62 90.6831 56.62C89.3231 56.62 87.9831 56.6 86.6631 56.56C85.3431 56.52 84.0031 56.5 82.6431 56.5C81.2831 56.5 79.9431 56.5 78.6231 56.5C77.3031 56.5 75.9631 56.54 74.6031 56.62C74.7231 54.14 74.8231 51.62 74.9031 49.06C75.0231 46.5 75.0831 43.9 75.0831 41.26V30.94ZM80.0031 41.26C80.0031 45.58 80.1231 49.82 80.3631 53.98C81.2031 54.18 82.3431 54.34 83.7831 54.46C85.2231 54.54 86.7031 54.58 88.2231 54.58C90.4231 54.58 92.6231 54.32 94.8231 53.8C97.0231 53.28 98.9831 52.3 100.703 50.86C102.463 49.42 103.883 47.46 104.963 44.98C106.083 42.46 106.643 39.22 106.643 35.26C106.643 31.78 106.203 28.92 105.323 26.68C104.483 24.44 103.303 22.68 101.783 21.4C100.303 20.08 98.5231 19.18 96.4431 18.7C94.3631 18.18 92.0831 17.92 89.6031 17.92C87.8031 17.92 86.1231 17.98 84.5631 18.1C83.0031 18.22 81.6031 18.36 80.3631 18.52C80.2431 20.44 80.1431 22.46 80.0631 24.58C80.0231 26.66 80.0031 28.78 80.0031 30.94V41.26ZM131.041 37.96C132.081 37.96 133.161 37.98 134.281 38.02C135.401 38.06 136.481 38.08 137.521 38.08C138.641 38.08 139.761 38.08 140.881 38.08C142.001 38.04 143.121 38 144.241 37.96L137.581 22.72L131.041 37.96ZM157.621 56.62C157.061 56.54 156.521 56.5 156.001 56.5C155.521 56.5 155.001 56.5 154.441 56.5C153.881 56.5 153.341 56.5 152.821 56.5C152.341 56.5 151.821 56.54 151.261 56.62C150.981 55.7 150.601 54.6 150.121 53.32C149.641 52 149.101 50.64 148.501 49.24C147.941 47.8 147.361 46.36 146.761 44.92C146.161 43.44 145.601 42.04 145.081 40.72C143.801 40.68 142.501 40.66 141.181 40.66C139.861 40.62 138.541 40.6 137.221 40.6C135.981 40.6 134.761 40.62 133.561 40.66C132.361 40.66 131.141 40.68 129.901 40.72C128.621 43.84 127.461 46.82 126.421 49.66C125.381 52.46 124.601 54.78 124.081 56.62C123.401 56.54 122.661 56.5 121.861 56.5C121.061 56.5 120.321 56.54 119.641 56.62C122.881 49.62 126.041 42.66 129.121 35.74C132.201 28.82 135.301 21.78 138.421 14.62H139.561C140.521 16.94 141.561 19.46 142.681 22.18C143.801 24.86 144.941 27.58 146.101 30.34C147.261 33.1 148.421 35.84 149.581 38.56C150.741 41.28 151.821 43.82 152.821 46.18C153.861 48.5 154.781 50.58 155.581 52.42C156.421 54.26 157.101 55.66 157.621 56.62ZM170.521 30.94C170.521 28.3 170.461 25.72 170.341 23.2C170.261 20.64 170.161 18.04 170.041 15.4C171.201 15.48 172.341 15.56 173.461 15.64C174.581 15.68 175.721 15.7 176.881 15.7C178.041 15.7 179.181 15.66 180.301 15.58C181.421 15.46 182.561 15.4 183.721 15.4C185.401 15.4 187.001 15.56 188.521 15.88C190.041 16.2 191.361 16.74 192.481 17.5C193.641 18.22 194.541 19.18 195.181 20.38C195.861 21.58 196.201 23.08 196.201 24.88C196.201 26.8 195.761 28.46 194.881 29.86C194.041 31.22 193.001 32.36 191.761 33.28C190.521 34.16 189.181 34.86 187.741 35.38C186.341 35.86 185.061 36.18 183.901 36.34C184.381 36.94 185.041 37.78 185.881 38.86C186.721 39.94 187.661 41.14 188.701 42.46C189.741 43.74 190.821 45.1 191.941 46.54C193.061 47.94 194.141 49.3 195.181 50.62C196.221 51.9 197.201 53.08 198.121 54.16C199.041 55.24 199.781 56.06 200.341 56.62C199.741 56.54 199.141 56.5 198.541 56.5C197.941 56.5 197.341 56.5 196.741 56.5C196.181 56.5 195.601 56.5 195.001 56.5C194.401 56.5 193.821 56.54 193.261 56.62C192.661 55.78 191.741 54.52 190.501 52.84C189.301 51.16 187.961 49.36 186.481 47.44C185.001 45.52 183.481 43.62 181.921 41.74C180.401 39.82 179.001 38.2 177.721 36.88H175.441V41.26C175.441 43.9 175.481 46.5 175.561 49.06C175.681 51.62 175.801 54.14 175.921 56.62C175.001 56.54 174.021 56.5 172.981 56.5C171.941 56.5 170.961 56.54 170.041 56.62C170.161 54.14 170.261 51.62 170.341 49.06C170.461 46.5 170.521 43.9 170.521 41.26V30.94ZM175.441 34.36C176.001 34.48 176.601 34.56 177.241 34.6C177.921 34.64 178.661 34.66 179.461 34.66C180.701 34.66 181.981 34.52 183.301 34.24C184.661 33.96 185.901 33.48 187.021 32.8C188.141 32.08 189.061 31.14 189.781 29.98C190.541 28.78 190.921 27.28 190.921 25.48C190.921 23.92 190.621 22.64 190.021 21.64C189.461 20.6 188.721 19.78 187.801 19.18C186.881 18.58 185.881 18.18 184.801 17.98C183.721 17.74 182.661 17.62 181.621 17.62C180.221 17.62 179.061 17.66 178.141 17.74C177.221 17.78 176.441 17.84 175.801 17.92C175.721 20.12 175.641 22.3 175.561 24.46C175.481 26.62 175.441 28.78 175.441 30.94V34.36ZM212.72 56.62C212.84 54.14 212.94 51.62 213.02 49.06C213.14 46.5 213.2 43.9 213.2 41.26V30.94C213.2 28.3 213.14 25.72 213.02 23.2C212.94 20.64 212.84 18.04 212.72 15.4C213.24 15.48 213.74 15.56 214.22 15.64C214.7 15.68 215.18 15.7 215.66 15.7C216.14 15.7 216.62 15.68 217.1 15.64C217.58 15.56 218.08 15.48 218.6 15.4C218.48 18.04 218.36 20.64 218.24 23.2C218.16 25.72 218.12 28.3 218.12 30.94V34.24C218.12 34.56 218.24 34.72 218.48 34.72C218.64 34.72 218.92 34.54 219.32 34.18C220.72 32.98 222.18 31.62 223.7 30.1C225.26 28.58 226.82 27 228.38 25.36C229.94 23.72 231.48 22.06 233 20.38C234.52 18.66 235.98 17 237.38 15.4C237.82 15.48 238.24 15.56 238.64 15.64C239.04 15.68 239.44 15.7 239.84 15.7C240.32 15.7 240.8 15.68 241.28 15.64C241.76 15.56 242.24 15.48 242.72 15.4C241.32 16.6 239.74 18.02 237.98 19.66C236.22 21.3 234.44 22.98 232.64 24.7C230.88 26.42 229.18 28.12 227.54 29.8C225.94 31.44 224.6 32.88 223.52 34.12C226.76 37.76 230.02 41.48 233.3 45.28C236.62 49.04 239.98 52.82 243.38 56.62C242.78 56.54 242.18 56.5 241.58 56.5C240.98 56.5 240.38 56.5 239.78 56.5C239.22 56.5 238.66 56.5 238.1 56.5C237.58 56.5 237.04 56.54 236.48 56.62C235.04 54.98 233.44 53.1 231.68 50.98C229.96 48.86 228.26 46.82 226.58 44.86C224.94 42.86 223.44 41.08 222.08 39.52C220.76 37.92 219.78 36.8 219.14 36.16C218.82 35.84 218.58 35.68 218.42 35.68C218.22 35.68 218.12 35.8 218.12 36.04V41.26C218.12 43.9 218.16 46.5 218.24 49.06C218.36 51.62 218.48 54.14 218.6 56.62C217.68 56.54 216.7 56.5 215.66 56.5C214.62 56.5 213.64 56.54 212.72 56.62Z" fill="#FFFFED"/>
<path d="M272.56 48.82C272.88 49.54 273.3 50.28 273.82 51.04C274.38 51.76 275.04 52.42 275.8 53.02C276.6 53.62 277.52 54.12 278.56 54.52C279.6 54.88 280.76 55.06 282.04 55.06C283.36 55.06 284.54 54.84 285.58 54.4C286.66 53.92 287.56 53.3 288.28 52.54C289.04 51.74 289.62 50.82 290.02 49.78C290.42 48.7 290.62 47.56 290.62 46.36C290.62 44.52 290.14 43.06 289.18 41.98C288.26 40.9 287.1 40 285.7 39.28C284.3 38.56 282.78 37.9 281.14 37.3C279.54 36.7 278.04 35.96 276.64 35.08C275.24 34.16 274.06 33 273.1 31.6C272.18 30.2 271.72 28.32 271.72 25.96C271.72 24.28 272.02 22.76 272.62 21.4C273.22 20 274.08 18.8 275.2 17.8C276.36 16.8 277.74 16.02 279.34 15.46C280.94 14.9 282.74 14.62 284.74 14.62C286.66 14.62 288.32 14.86 289.72 15.34C291.12 15.78 292.42 16.48 293.62 17.44C293.26 18.12 292.96 18.84 292.72 19.6C292.48 20.36 292.24 21.32 292 22.48H291.28C291.08 21.92 290.8 21.32 290.44 20.68C290.12 20 289.66 19.38 289.06 18.82C288.5 18.26 287.82 17.8 287.02 17.44C286.22 17.04 285.26 16.84 284.14 16.84C283.02 16.84 281.98 17.02 281.02 17.38C280.1 17.74 279.28 18.26 278.56 18.94C277.88 19.58 277.34 20.36 276.94 21.28C276.58 22.2 276.4 23.2 276.4 24.28C276.4 26.16 276.86 27.64 277.78 28.72C278.74 29.8 279.92 30.72 281.32 31.48C282.72 32.2 284.22 32.86 285.82 33.46C287.46 34.02 288.98 34.72 290.38 35.56C291.78 36.4 292.94 37.48 293.86 38.8C294.82 40.12 295.3 41.88 295.3 44.08C295.3 45.92 294.96 47.66 294.28 49.3C293.64 50.94 292.68 52.38 291.4 53.62C290.16 54.82 288.62 55.76 286.78 56.44C284.98 57.08 282.92 57.4 280.6 57.4C278.12 57.4 276.1 57.08 274.54 56.44C273.02 55.76 271.74 55 270.7 54.16C271.06 53.24 271.3 52.42 271.42 51.7C271.58 50.94 271.72 49.98 271.84 48.82H272.56ZM314.8 35.44C316.16 35.76 317.58 35.92 319.06 35.92C320.3 35.92 321.58 35.78 322.9 35.5C324.22 35.22 325.42 34.72 326.5 34C327.62 33.24 328.52 32.22 329.2 30.94C329.92 29.62 330.28 27.94 330.28 25.9C330.28 24.18 330.04 22.78 329.56 21.7C329.08 20.62 328.4 19.78 327.52 19.18C326.68 18.58 325.64 18.18 324.4 17.98C323.16 17.74 321.76 17.62 320.2 17.62H314.8V35.44ZM309.88 30.94C309.88 28.3 309.82 25.72 309.7 23.2C309.62 20.64 309.52 18.04 309.4 15.4C310.36 15.48 311.32 15.56 312.28 15.64C313.28 15.68 314.26 15.7 315.22 15.7C315.7 15.7 316.28 15.68 316.96 15.64C317.64 15.6 318.32 15.58 319 15.58C319.72 15.54 320.4 15.5 321.04 15.46C321.68 15.42 322.22 15.4 322.66 15.4C323.26 15.4 324 15.42 324.88 15.46C325.76 15.5 326.68 15.62 327.64 15.82C328.64 16.02 329.62 16.32 330.58 16.72C331.54 17.12 332.4 17.7 333.16 18.46C333.96 19.22 334.6 20.18 335.08 21.34C335.56 22.46 335.8 23.86 335.8 25.54C335.8 28.18 335.22 30.32 334.06 31.96C332.94 33.6 331.54 34.88 329.86 35.8C328.22 36.72 326.46 37.34 324.58 37.66C322.74 37.98 321.1 38.14 319.66 38.14C318.74 38.14 317.9 38.14 317.14 38.14C316.38 38.1 315.6 38.04 314.8 37.96V41.26C314.8 43.9 314.84 46.5 314.92 49.06C315.04 51.62 315.16 54.14 315.28 56.62C314.36 56.54 313.38 56.5 312.34 56.5C311.3 56.5 310.32 56.54 309.4 56.62C309.52 54.14 309.62 51.62 309.7 49.06C309.82 46.5 309.88 43.9 309.88 41.26V30.94ZM352.479 37.96C353.519 37.96 354.599 37.98 355.719 38.02C356.839 38.06 357.919 38.08 358.959 38.08C360.079 38.08 361.199 38.08 362.319 38.08C363.439 38.04 364.559 38 365.679 37.96L359.019 22.72L352.479 37.96ZM379.059 56.62C378.499 56.54 377.959 56.5 377.439 56.5C376.959 56.5 376.439 56.5 375.879 56.5C375.319 56.5 374.779 56.5 374.259 56.5C373.779 56.5 373.259 56.54 372.699 56.62C372.419 55.7 372.039 54.6 371.559 53.32C371.079 52 370.539 50.64 369.939 49.24C369.379 47.8 368.799 46.36 368.199 44.92C367.599 43.44 367.039 42.04 366.519 40.72C365.239 40.68 363.939 40.66 362.619 40.66C361.299 40.62 359.979 40.6 358.659 40.6C357.419 40.6 356.199 40.62 354.999 40.66C353.799 40.66 352.579 40.68 351.339 40.72C350.059 43.84 348.899 46.82 347.859 49.66C346.819 52.46 346.039 54.78 345.519 56.62C344.839 56.54 344.099 56.5 343.299 56.5C342.499 56.5 341.759 56.54 341.079 56.62C344.319 49.62 347.479 42.66 350.559 35.74C353.639 28.82 356.739 21.78 359.859 14.62H360.999C361.959 16.94 362.999 19.46 364.119 22.18C365.239 24.86 366.379 27.58 367.539 30.34C368.699 33.1 369.859 35.84 371.019 38.56C372.179 41.28 373.259 43.82 374.259 46.18C375.299 48.5 376.219 50.58 377.019 52.42C377.859 54.26 378.539 55.66 379.059 56.62ZM421.162 54.16C420.802 54.48 420.222 54.84 419.422 55.24C418.662 55.6 417.722 55.94 416.602 56.26C415.522 56.54 414.302 56.8 412.942 57.04C411.582 57.28 410.162 57.4 408.682 57.4C405.522 57.4 402.602 56.96 399.922 56.08C397.242 55.16 394.922 53.78 392.962 51.94C391.042 50.1 389.522 47.86 388.402 45.22C387.322 42.54 386.782 39.5 386.782 36.1C386.782 32.7 387.322 29.68 388.402 27.04C389.522 24.36 391.062 22.1 393.022 20.26C395.022 18.42 397.402 17.02 400.162 16.06C402.922 15.1 405.962 14.62 409.282 14.62C411.922 14.62 414.322 14.9 416.482 15.46C418.682 15.98 420.622 16.62 422.302 17.38C421.982 17.94 421.722 18.7 421.522 19.66C421.322 20.62 421.162 21.42 421.042 22.06L420.682 22.18C420.282 21.7 419.722 21.16 419.002 20.56C418.282 19.96 417.442 19.38 416.482 18.82C415.522 18.26 414.442 17.8 413.242 17.44C412.042 17.04 410.722 16.84 409.282 16.84C406.922 16.84 404.722 17.22 402.682 17.98C400.682 18.74 398.922 19.92 397.402 21.52C395.922 23.08 394.762 25.08 393.922 27.52C393.082 29.92 392.662 32.78 392.662 36.1C392.662 39.42 393.082 42.3 393.922 44.74C394.762 47.14 395.922 49.14 397.402 50.74C398.922 52.3 400.682 53.46 402.682 54.22C404.722 54.98 406.922 55.36 409.282 55.36C410.722 55.36 412.042 55.18 413.242 54.82C414.482 54.46 415.602 54.04 416.602 53.56C417.642 53.04 418.562 52.5 419.362 51.94C420.202 51.34 420.902 50.82 421.462 50.38L421.702 50.62L421.162 54.16ZM436.161 30.88C436.161 28.24 436.101 25.64 435.981 23.08C435.901 20.52 435.801 17.96 435.681 15.4C437.481 15.48 439.261 15.56 441.021 15.64C442.821 15.68 444.621 15.7 446.421 15.7C448.221 15.7 450.001 15.68 451.761 15.64C453.521 15.56 455.301 15.48 457.101 15.4C456.981 16 456.921 16.6 456.921 17.2C456.921 17.8 456.981 18.4 457.101 19C455.821 18.92 454.641 18.84 453.561 18.76C452.521 18.68 451.401 18.6 450.201 18.52C449.041 18.44 447.761 18.38 446.361 18.34C444.961 18.26 443.281 18.22 441.321 18.22C441.281 19.5 441.221 20.72 441.141 21.88C441.101 23.04 441.081 24.36 441.081 25.84C441.081 27.4 441.081 28.92 441.081 30.4C441.121 31.88 441.141 33 441.141 33.76C442.901 33.76 444.481 33.74 445.881 33.7C447.281 33.66 448.561 33.62 449.721 33.58C450.881 33.5 451.941 33.44 452.901 33.4C453.901 33.32 454.841 33.24 455.721 33.16C455.601 33.76 455.541 34.38 455.541 35.02C455.541 35.62 455.601 36.22 455.721 36.82C454.681 36.7 453.461 36.6 452.061 36.52C450.701 36.44 449.321 36.4 447.921 36.4C446.561 36.36 445.261 36.34 444.021 36.34C442.821 36.3 441.861 36.28 441.141 36.28C441.141 36.64 441.121 37.04 441.081 37.48C441.081 37.88 441.081 38.4 441.081 39.04V41.38V44.98C441.081 47.26 441.081 49.14 441.081 50.62C441.121 52.1 441.161 53.22 441.201 53.98C442.521 53.98 443.921 53.98 445.401 53.98C446.921 53.98 448.401 53.96 449.841 53.92C451.321 53.84 452.701 53.76 453.981 53.68C455.301 53.56 456.441 53.4 457.401 53.2C457.321 53.48 457.261 53.8 457.221 54.16C457.221 54.48 457.221 54.78 457.221 55.06C457.221 55.7 457.281 56.22 457.401 56.62C455.601 56.54 453.801 56.5 452.001 56.5C450.241 56.5 448.441 56.5 446.601 56.5C444.761 56.5 442.941 56.5 441.141 56.5C439.341 56.5 437.521 56.54 435.681 56.62C435.801 54.06 435.901 51.52 435.981 49C436.101 46.44 436.161 43.84 436.161 41.2V30.88Z" fill="#FFFFED"/>
<path d="M145.681 121.38C145.894 121.86 146.174 122.353 146.521 122.86C146.894 123.34 147.334 123.78 147.841 124.18C148.374 124.58 148.987 124.913 149.681 125.18C150.374 125.42 151.147 125.54 152.001 125.54C152.881 125.54 153.667 125.393 154.361 125.1C155.081 124.78 155.681 124.367 156.161 123.86C156.667 123.327 157.054 122.713 157.321 122.02C157.587 121.3 157.721 120.54 157.721 119.74C157.721 118.513 157.401 117.54 156.761 116.82C156.147 116.1 155.374 115.5 154.441 115.02C153.507 114.54 152.494 114.1 151.401 113.7C150.334 113.3 149.334 112.807 148.401 112.22C147.467 111.607 146.681 110.833 146.041 109.9C145.427 108.967 145.121 107.713 145.121 106.14C145.121 105.02 145.321 104.007 145.721 103.1C146.121 102.167 146.694 101.367 147.441 100.7C148.214 100.033 149.134 99.5133 150.201 99.14C151.267 98.7667 152.467 98.58 153.801 98.58C155.081 98.58 156.187 98.74 157.121 99.06C158.054 99.3533 158.921 99.82 159.721 100.46C159.481 100.913 159.281 101.393 159.121 101.9C158.961 102.407 158.801 103.047 158.641 103.82H158.161C158.027 103.447 157.841 103.047 157.601 102.62C157.387 102.167 157.081 101.753 156.681 101.38C156.307 101.007 155.854 100.7 155.321 100.46C154.787 100.193 154.147 100.06 153.401 100.06C152.654 100.06 151.961 100.18 151.321 100.42C150.707 100.66 150.161 101.007 149.681 101.46C149.227 101.887 148.867 102.407 148.601 103.02C148.361 103.633 148.241 104.3 148.241 105.02C148.241 106.273 148.547 107.26 149.161 107.98C149.801 108.7 150.587 109.313 151.521 109.82C152.454 110.3 153.454 110.74 154.521 111.14C155.614 111.513 156.627 111.98 157.561 112.54C158.494 113.1 159.267 113.82 159.881 114.7C160.521 115.58 160.841 116.753 160.841 118.22C160.841 119.447 160.614 120.607 160.161 121.7C159.734 122.793 159.094 123.753 158.241 124.58C157.414 125.38 156.387 126.007 155.161 126.46C153.961 126.887 152.587 127.1 151.041 127.1C149.387 127.1 148.041 126.887 147.001 126.46C145.987 126.007 145.134 125.5 144.441 124.94C144.681 124.327 144.841 123.78 144.921 123.3C145.027 122.793 145.121 122.153 145.201 121.38H145.681ZM188.121 109.46C188.121 106.687 188.081 103.927 188.001 101.18C187.307 101.18 186.574 101.193 185.801 101.22C185.054 101.22 184.294 101.247 183.521 101.3C182.774 101.327 182.041 101.367 181.321 101.42C180.627 101.473 180.001 101.54 179.441 101.62C179.574 101.14 179.641 100.713 179.641 100.34C179.641 100.047 179.574 99.6333 179.441 99.1C181.201 99.1533 182.921 99.2067 184.601 99.26C186.281 99.2867 188.001 99.3 189.761 99.3C191.521 99.3 193.241 99.2867 194.921 99.26C196.601 99.2067 198.321 99.1533 200.081 99.1C199.947 99.6333 199.881 100.06 199.881 100.38C199.881 100.727 199.947 101.14 200.081 101.62C199.521 101.54 198.881 101.473 198.161 101.42C197.467 101.367 196.734 101.327 195.961 101.3C195.214 101.247 194.454 101.22 193.681 101.22C192.934 101.193 192.214 101.18 191.521 101.18C191.441 103.927 191.401 106.687 191.401 109.46V116.34C191.401 118.1 191.427 119.833 191.481 121.54C191.561 123.247 191.641 124.927 191.721 126.58C191.107 126.527 190.454 126.5 189.761 126.5C189.067 126.5 188.414 126.527 187.801 126.58C187.881 124.927 187.947 123.247 188.001 121.54C188.081 119.833 188.121 118.1 188.121 116.34V109.46ZM241.627 112.1C241.627 108.313 241.614 105.393 241.587 103.34C241.561 101.287 241.494 99.8733 241.387 99.1C241.681 99.1533 241.961 99.2067 242.227 99.26C242.494 99.2867 242.761 99.3 243.027 99.3C243.374 99.3 243.774 99.2333 244.227 99.1C244.147 100.033 244.067 101.153 243.987 102.46C243.907 103.74 243.841 105.127 243.787 106.62C243.734 108.087 243.681 109.607 243.627 111.18C243.574 112.727 243.534 114.233 243.507 115.7C243.481 117.487 243.201 119.087 242.667 120.5C242.161 121.913 241.427 123.113 240.467 124.1C239.507 125.087 238.321 125.833 236.907 126.34C235.521 126.847 233.921 127.1 232.107 127.1C228.107 127.1 225.201 126.193 223.387 124.38C221.574 122.567 220.667 119.7 220.667 115.78C220.667 114.527 220.694 113.42 220.747 112.46C220.827 111.473 220.867 110.473 220.867 109.46C220.867 107.22 220.841 105.233 220.787 103.5C220.734 101.767 220.681 100.3 220.627 99.1C220.947 99.1533 221.294 99.2067 221.667 99.26C222.041 99.2867 222.387 99.3 222.707 99.3C223.001 99.3 223.281 99.2867 223.547 99.26C223.841 99.2067 224.134 99.1533 224.427 99.1C224.374 99.6867 224.321 100.46 224.267 101.42C224.214 102.353 224.161 103.42 224.107 104.62C224.054 105.82 224.014 107.113 223.987 108.5C223.961 109.887 223.947 111.327 223.947 112.82C223.947 113.727 223.961 114.673 223.987 115.66C224.014 116.62 224.107 117.567 224.267 118.5C224.427 119.407 224.681 120.287 225.027 121.14C225.401 121.967 225.921 122.7 226.587 123.34C227.254 123.953 228.094 124.447 229.107 124.82C230.121 125.167 231.374 125.34 232.867 125.34C234.334 125.34 235.561 125.127 236.547 124.7C237.561 124.273 238.387 123.713 239.027 123.02C239.667 122.327 240.161 121.527 240.507 120.62C240.881 119.713 241.147 118.767 241.307 117.78C241.467 116.793 241.561 115.807 241.587 114.82C241.614 113.833 241.627 112.927 241.627 112.1Z" fill="#FFFFED"/>
<path d="M267.92 109.46C267.92 107.7 267.88 105.98 267.8 104.3C267.747 102.593 267.68 100.86 267.6 99.1C268.613 99.1533 269.613 99.2067 270.6 99.26C271.613 99.2867 272.627 99.3 273.64 99.3C274.653 99.3 275.653 99.2733 276.64 99.22C277.653 99.14 278.667 99.1 279.68 99.1C282.027 99.1 284.027 99.4067 285.68 100.02C287.36 100.633 288.733 101.513 289.8 102.66C290.867 103.78 291.64 105.167 292.12 106.82C292.627 108.447 292.88 110.287 292.88 112.34C292.88 115.007 292.413 117.26 291.48 119.1C290.573 120.913 289.4 122.38 287.96 123.5C286.547 124.62 284.973 125.42 283.24 125.9C281.533 126.353 279.893 126.58 278.32 126.58C277.413 126.58 276.52 126.567 275.64 126.54C274.76 126.513 273.867 126.5 272.96 126.5C272.053 126.5 271.16 126.5 270.28 126.5C269.4 126.5 268.507 126.527 267.6 126.58C267.68 124.927 267.747 123.247 267.8 121.54C267.88 119.833 267.92 118.1 267.92 116.34V109.46ZM271.2 116.34C271.2 119.22 271.28 122.047 271.44 124.82C272 124.953 272.76 125.06 273.72 125.14C274.68 125.193 275.667 125.22 276.68 125.22C278.147 125.22 279.613 125.047 281.08 124.7C282.547 124.353 283.853 123.7 285 122.74C286.173 121.78 287.12 120.473 287.84 118.82C288.587 117.14 288.96 114.98 288.96 112.34C288.96 110.02 288.667 108.113 288.08 106.62C287.52 105.127 286.733 103.953 285.72 103.1C284.733 102.22 283.547 101.62 282.16 101.3C280.773 100.953 279.253 100.78 277.6 100.78C276.4 100.78 275.28 100.82 274.24 100.9C273.2 100.98 272.267 101.073 271.44 101.18C271.36 102.46 271.293 103.807 271.24 105.22C271.213 106.607 271.2 108.02 271.2 109.46V116.34ZM315.053 109.46C315.053 107.7 315.013 105.98 314.933 104.3C314.879 102.593 314.813 100.86 314.733 99.1C315.079 99.1533 315.413 99.2067 315.733 99.26C316.053 99.2867 316.373 99.3 316.693 99.3C317.013 99.3 317.333 99.2867 317.653 99.26C317.973 99.2067 318.306 99.1533 318.653 99.1C318.573 100.86 318.493 102.593 318.413 104.3C318.359 105.98 318.333 107.7 318.333 109.46V116.34C318.333 118.1 318.359 119.833 318.413 121.54C318.493 123.247 318.573 124.927 318.653 126.58C318.039 126.527 317.386 126.5 316.693 126.5C315.999 126.5 315.346 126.527 314.733 126.58C314.813 124.927 314.879 123.247 314.933 121.54C315.013 119.833 315.053 118.1 315.053 116.34V109.46ZM339.946 112.9C339.946 110.633 340.306 108.62 341.026 106.86C341.772 105.073 342.799 103.567 344.106 102.34C345.439 101.113 347.026 100.18 348.866 99.54C350.706 98.9 352.719 98.58 354.906 98.58C357.119 98.58 359.146 98.9 360.986 99.54C362.826 100.18 364.399 101.113 365.706 102.34C367.039 103.567 368.066 105.073 368.786 106.86C369.532 108.62 369.906 110.633 369.906 112.9C369.906 115.167 369.532 117.193 368.786 118.98C368.066 120.74 367.039 122.233 365.706 123.46C364.399 124.687 362.826 125.607 360.986 126.22C359.146 126.807 357.119 127.1 354.906 127.1C352.719 127.1 350.706 126.807 348.866 126.22C347.026 125.607 345.439 124.687 344.106 123.46C342.799 122.233 341.772 120.74 341.026 118.98C340.306 117.193 339.946 115.167 339.946 112.9ZM365.986 112.9C365.986 110.687 365.706 108.78 365.146 107.18C364.586 105.553 363.799 104.22 362.786 103.18C361.799 102.113 360.626 101.327 359.266 100.82C357.932 100.313 356.479 100.06 354.906 100.06C353.359 100.06 351.906 100.313 350.546 100.82C349.212 101.327 348.039 102.113 347.026 103.18C346.039 104.22 345.266 105.553 344.706 107.18C344.146 108.78 343.866 110.687 343.866 112.9C343.866 115.113 344.146 117.033 344.706 118.66C345.266 120.26 346.039 121.593 347.026 122.66C348.039 123.7 349.212 124.473 350.546 124.98C351.906 125.487 353.359 125.74 354.906 125.74C356.479 125.74 357.932 125.487 359.266 124.98C360.626 124.473 361.799 123.7 362.786 122.66C363.799 121.593 364.586 120.26 365.146 118.66C365.706 117.033 365.986 115.113 365.986 112.9Z" fill="#FFFFED"/>
</svg>
